<?xml version="1.0" encoding="UTF-8"?>
<svg width="199px" height="45px" viewBox="0 0 199 45" version="1.1" xmlns="http://www.w3.org/2000/svg" xmlns:xlink="http://www.w3.org/1999/xlink">
    <title>Group</title>
    <g id="Page-1" stroke="none" stroke-width="1" fill="none" fill-rule="evenodd">
        <g id="Mobile-Copy-15" transform="translate(-60, -65)" fill-rule="nonzero">
            <g id="Group" transform="translate(60.133, 65.928)">
                <g id="noun_Love_1033573" transform="translate(-0.133, 0.072)" fill="#E5155C">
                    <path d="M41.296875,3.61463415 C39,1.34390244 35.953125,0.185365854 32.90625,0.185365854 C29.859375,0.185365854 26.859375,1.34390244 24.515625,3.61463415 L22.546875,5.56097561 L20.578125,3.61463415 C18.28125,1.34390244 15.234375,0.185365854 12.1875,0.185365854 C7.359375,0.185365854 2.578125,3.05853659 0.65625,8.75853659 C-0.609375,12.604878 0.46875,16.8682927 3.375,19.7414634 L21.09375,37.2585366 C21.890625,38.0463415 23.109375,38.0463415 23.90625,37.2585366 L41.203125,20.1585366 C45.9375,15.6170732 45.9375,8.15609756 41.296875,3.61463415 Z" id="Shape"></path>
                </g>
                <g id="Ciyona" transform="translate(55.955, 0)" fill="#484848">
                    <path d="M25.512,27.024 C25.704,27.024 25.896,27.06 26.088,27.132 C26.28,27.204 26.464,27.328 26.64,27.504 L29.856,30.888 C28.448,32.728 26.684,34.116 24.564,35.052 C22.444,35.988 19.936,36.456 17.04,36.456 C14.384,36.456 12.004,36.004 9.9,35.1 C7.796,34.196 6.012,32.948 4.548,31.356 C3.084,29.764 1.96,27.876 1.176,25.692 C0.392,23.508 0,21.136 0,18.576 C0,15.968 0.448,13.572 1.344,11.388 C2.24,9.204 3.492,7.32 5.1,5.736 C6.708,4.152 8.632,2.92 10.872,2.04 C13.112,1.16 15.584,0.72 18.288,0.72 C19.6,0.72 20.836,0.836 21.996,1.068 C23.156,1.3 24.24,1.62 25.248,2.028 C26.256,2.436 27.184,2.924 28.032,3.492 C28.88,4.06 29.632,4.688 30.288,5.376 L27.552,9.048 C27.376,9.272 27.168,9.476 26.928,9.66 C26.688,9.844 26.352,9.936 25.92,9.936 C25.632,9.936 25.36,9.872 25.104,9.744 C24.848,9.616 24.576,9.46 24.288,9.276 C24,9.092 23.684,8.892 23.34,8.676 C22.996,8.46 22.588,8.26 22.116,8.076 C21.644,7.892 21.092,7.736 20.46,7.608 C19.828,7.48 19.088,7.416 18.24,7.416 C16.768,7.416 15.424,7.676 14.208,8.196 C12.992,8.716 11.948,9.46 11.076,10.428 C10.204,11.396 9.524,12.568 9.036,13.944 C8.548,15.32 8.304,16.864 8.304,18.576 C8.304,20.368 8.548,21.96 9.036,23.352 C9.524,24.744 10.188,25.916 11.028,26.868 C11.868,27.82 12.848,28.544 13.968,29.04 C15.088,29.536 16.288,29.784 17.568,29.784 C18.304,29.784 18.976,29.748 19.584,29.676 C20.192,29.604 20.756,29.48 21.276,29.304 C21.796,29.128 22.292,28.9 22.764,28.62 C23.236,28.34 23.712,27.992 24.192,27.576 C24.384,27.416 24.592,27.284 24.816,27.18 C25.04,27.076 25.272,27.024 25.512,27.024 Z" id="Path"></path>
                    <path d="M39.932,11.184 L39.932,36.072 L32.492,36.072 L32.492,11.184 L39.932,11.184 Z M40.796,4.368 C40.796,4.96 40.676,5.516 40.436,6.036 C40.196,6.556 39.868,7.012 39.452,7.404 C39.036,7.796 38.552,8.108 38,8.34 C37.448,8.572 36.86,8.688 36.236,8.688 C35.628,8.688 35.06,8.572 34.532,8.34 C34.004,8.108 33.536,7.796 33.128,7.404 C32.72,7.012 32.4,6.556 32.168,6.036 C31.936,5.516 31.82,4.96 31.82,4.368 C31.82,3.76 31.936,3.192 32.168,2.664 C32.4,2.136 32.72,1.672 33.128,1.272 C33.536,0.872 34.004,0.56 34.532,0.336 C35.06,0.112 35.628,-2.27373675e-13 36.236,-2.27373675e-13 C36.86,-2.27373675e-13 37.448,0.112 38,0.336 C38.552,0.56 39.036,0.872 39.452,1.272 C39.868,1.672 40.196,2.136 40.436,2.664 C40.676,3.192 40.796,3.76 40.796,4.368 Z" id="Shape"></path>
                    <path d="M54.8080001,42.528 C54.5840001,43.024 54.3120001,43.388 53.9920001,43.62 C53.6720001,43.852 53.1600001,43.968 52.4560001,43.968 L46.8880001,43.968 L51.6880001,33.888 L41.7520001,11.184 L48.3280001,11.184 C48.9040001,11.184 49.3520001,11.312 49.6720001,11.568 C49.9920001,11.824 50.2160001,12.128 50.3440001,12.48 L54.4240001,23.208 C54.8080001,24.2 55.1200001,25.192 55.3600001,26.184 C55.5200001,25.672 55.6960001,25.168 55.8880001,24.672 C56.0800001,24.176 56.2640001,23.672 56.4400001,23.16 L60.1360001,12.48 C60.2640001,12.112 60.5160001,11.804 60.8920001,11.556 C61.2680001,11.308 61.6720001,11.184 62.1040001,11.184 L68.1040001,11.184 L54.8080001,42.528 Z" id="Path"></path>
                    <path d="M80.0040001,10.8 C81.8920001,10.8 83.6120001,11.096 85.1640001,11.688 C86.7160001,12.28 88.0480001,13.128 89.1600001,14.232 C90.2720001,15.336 91.1360001,16.676 91.7520001,18.252 C92.3680001,19.828 92.6760001,21.6 92.6760001,23.568 C92.6760001,25.552 92.3680001,27.34 91.7520001,28.932 C91.1360001,30.524 90.2720001,31.876 89.1600001,32.988 C88.0480001,34.1 86.7160001,34.956 85.1640001,35.556 C83.6120001,36.156 81.8920001,36.456 80.0040001,36.456 C78.1000001,36.456 76.3680001,36.156 74.8080001,35.556 C73.2480001,34.956 71.9040001,34.1 70.7760001,32.988 C69.6480001,31.876 68.7760001,30.524 68.1600001,28.932 C67.5440001,27.34 67.2360001,25.552 67.2360001,23.568 C67.2360001,21.6 67.5440001,19.828 68.1600001,18.252 C68.7760001,16.676 69.6480001,15.336 70.7760001,14.232 C71.9040001,13.128 73.2480001,12.28 74.8080001,11.688 C76.3680001,11.096 78.1000001,10.8 80.0040001,10.8 Z M80.0040001,30.936 C81.7160001,30.936 82.9760001,30.332 83.7840001,29.124 C84.5920001,27.916 84.9960001,26.08 84.9960001,23.616 C84.9960001,21.152 84.5920001,19.32 83.7840001,18.12 C82.9760001,16.92 81.7160001,16.32 80.0040001,16.32 C78.2440001,16.32 76.9560001,16.92 76.1400001,18.12 C75.3240001,19.32 74.9160001,21.152 74.9160001,23.616 C74.9160001,26.08 75.3240001,27.916 76.1400001,29.124 C76.9560001,30.332 78.2440001,30.936 80.0040001,30.936 Z" id="Shape"></path>
                    <path d="M95.4560002,36.072 L95.4560002,11.184 L100.064,11.184 C100.528,11.184 100.916,11.288 101.228,11.496 C101.54,11.704 101.76,12.016 101.888,12.432 L102.32,13.872 C102.8,13.424 103.296,13.008 103.808,12.624 C104.32,12.24 104.868,11.916 105.452,11.652 C106.036,11.388 106.668,11.18 107.348,11.028 C108.028,10.876 108.768,10.8 109.568,10.8 C110.928,10.8 112.132,11.036 113.18,11.508 C114.228,11.98 115.112,12.636 115.832,13.476 C116.552,14.316 117.096,15.316 117.464,16.476 C117.832,17.636 118.016,18.896 118.016,20.256 L118.016,36.072 L110.576,36.072 L110.576,20.256 C110.576,19.04 110.296,18.092 109.736,17.412 C109.176,16.732 108.352,16.392 107.264,16.392 C106.448,16.392 105.68,16.568 104.96,16.92 C104.24,17.272 103.552,17.744 102.896,18.336 L102.896,36.072 L95.4560002,36.072 Z" id="Path"></path>
                    <path d="M139.18,36.072 C138.476,36.072 137.944,35.976 137.584,35.784 C137.224,35.592 136.924,35.192 136.684,34.584 L136.156,33.216 C135.532,33.744 134.932,34.208 134.356,34.608 C133.78,35.008 133.184,35.348 132.568,35.628 C131.952,35.908 131.296,36.116 130.6,36.252 C129.904,36.388 129.132,36.456 128.284,36.456 C127.148,36.456 126.116,36.308 125.188,36.012 C124.26,35.716 123.472,35.28 122.824,34.704 C122.176,34.128 121.676,33.412 121.324,32.556 C120.972,31.7 120.796,30.712 120.796,29.592 C120.796,28.712 121.02,27.808 121.468,26.88 C121.916,25.952 122.692,25.108 123.796,24.348 C124.9,23.588 126.388,22.952 128.26,22.44 C130.132,21.928 132.492,21.64 135.34,21.576 L135.34,20.52 C135.34,19.064 135.04,18.012 134.44,17.364 C133.84,16.716 132.988,16.392 131.884,16.392 C131.004,16.392 130.284,16.488 129.724,16.68 C129.164,16.872 128.664,17.088 128.224,17.328 C127.784,17.568 127.356,17.784 126.94,17.976 C126.524,18.168 126.028,18.264 125.452,18.264 C124.94,18.264 124.504,18.14 124.144,17.892 C123.784,17.644 123.5,17.336 123.292,16.968 L121.948,14.64 C123.452,13.312 125.12,12.324 126.952,11.676 C128.784,11.028 130.748,10.704 132.844,10.704 C134.348,10.704 135.704,10.948 136.912,11.436 C138.12,11.924 139.144,12.604 139.984,13.476 C140.824,14.348 141.468,15.384 141.916,16.584 C142.364,17.784 142.588,19.096 142.588,20.52 L142.588,36.072 L139.18,36.072 Z M130.636,31.536 C131.596,31.536 132.436,31.368 133.156,31.032 C133.876,30.696 134.604,30.152 135.34,29.4 L135.34,25.944 C133.852,26.008 132.628,26.136 131.668,26.328 C130.708,26.52 129.948,26.76 129.388,27.048 C128.828,27.336 128.44,27.664 128.224,28.032 C128.008,28.4 127.9,28.8 127.9,29.232 C127.9,30.08 128.132,30.676 128.596,31.02 C129.06,31.364 129.74,31.536 130.636,31.536 Z" id="Shape"></path>
                </g>
            </g>
        </g>
    </g>
</svg>